<svg xmlns="http://www.w3.org/2000/svg" width="920.46" height="230.588" viewBox="0 0 243.538 61.01"><defs><linearGradient id="b" x1="0" x2="1" y1="0" y2="0" gradientTransform="scale(160.40045 -160.40045) rotate(-6 -5.48 -1.855)" gradientUnits="userSpaceOnUse" spreadMethod="pad"><stop offset="0" stop-color="#151643"/><stop offset=".078" stop-color="#151643"/><stop offset=".863" stop-color="#00adef"/><stop offset="1" stop-color="#00adef"/></linearGradient><linearGradient id="d" x1="0" x2="1" y1="0" y2="0" gradientTransform="scale(105.44438 -105.44438) rotate(-86 .327 -.798)" gradientUnits="userSpaceOnUse" spreadMethod="pad"><stop offset="0" stop-color="#f03d31"/><stop offset=".121" stop-color="#f03d31"/><stop offset=".609" stop-color="#f9a70d"/><stop offset="1" stop-color="#fff"/></linearGradient><linearGradient id="e" x1="0" x2="1" y1="0" y2="0" gradientTransform="scale(98.02476 -98.02476) rotate(-70 .162 -1.001)" gradientUnits="userSpaceOnUse" spreadMethod="pad"><stop offset="0" stop-color="#f03d31"/><stop offset=".534" stop-color="#f9a70d"/><stop offset="1" stop-color="#fff"/></linearGradient><linearGradient id="f" x1="0" x2="1" y1="0" y2="0" gradientTransform="scale(97.71878 -97.71878) rotate(-83 .31 -.896)" gradientUnits="userSpaceOnUse" spreadMethod="pad"><stop offset="0" stop-color="#f03d31"/><stop offset=".28" stop-color="#f9a70d"/><stop offset=".696" stop-color="#fbc968"/><stop offset="1" stop-color="#fff"/></linearGradient><linearGradient id="g" x1="0" x2="1" y1="0" y2="0" gradientTransform="scale(27.174 -27.174) rotate(-29 -4.396 -9.314)" gradientUnits="userSpaceOnUse" spreadMethod="pad"><stop offset="0" stop-color="#f03d31"/><stop offset=".262" stop-color="#f9a70d"/><stop offset="1" stop-color="#fff"/></linearGradient><linearGradient id="h" x1="0" x2="1" y1="0" y2="0" gradientTransform="scale(98.374 -98.374) rotate(-29 -.8 -1.899)" gradientUnits="userSpaceOnUse" spreadMethod="pad"><stop offset="0" stop-color="#f03d31"/><stop offset=".345" stop-color="#f9a70d"/><stop offset=".632" stop-color="#fbbe4a"/><stop offset="1" stop-color="#fff"/></linearGradient><linearGradient id="i" x1="0" x2="1" y1="0" y2="0" gradientTransform="scale(91.86762 -91.86762) rotate(-29 -.644 -2.11)" gradientUnits="userSpaceOnUse" spreadMethod="pad"><stop offset="0" stop-color="#f03d31"/><stop offset=".337" stop-color="#f8a20f"/><stop offset=".634" stop-color="#f9a70d"/><stop offset="1" stop-color="#fff"/></linearGradient><linearGradient id="j" x1="0" x2="1" y1="0" y2="0" gradientTransform="scale(77.11088 -77.11088) rotate(-29 -.53 -2.69)" gradientUnits="userSpaceOnUse" spreadMethod="pad"><stop offset="0" stop-color="#f03d31"/><stop offset=".495" stop-color="#f9a70d"/><stop offset=".728" stop-color="#fbc356"/><stop offset="1" stop-color="#fff"/></linearGradient><linearGradient id="k" x1="0" x2="1" y1="0" y2="0" gradientTransform="scale(44.09565 -44.09565) rotate(-64 .735 -2.653)" gradientUnits="userSpaceOnUse" spreadMethod="pad"><stop offset="0" stop-color="#f03d31"/><stop offset=".055" stop-color="#f03d31"/><stop offset=".621" stop-color="#f9a70d"/><stop offset="1" stop-color="#fff"/></linearGradient><linearGradient id="l" x1="0" x2="1" y1="0" y2="0" gradientTransform="scale(100.87435 -100.87435) rotate(-29 -.99 -1.82)" gradientUnits="userSpaceOnUse" spreadMethod="pad"><stop offset="0" stop-color="#f04930"/><stop offset=".046" stop-color="#f2582a"/><stop offset=".188" stop-color="#f9a70d"/><stop offset=".593" stop-color="#fabd47"/><stop offset="1" stop-color="#fff"/></linearGradient><linearGradient id="m" x1="0" x2="1" y1="0" y2="0" gradientTransform="scale(99.11911 -99.11911) rotate(-29 -1.224 -1.868)" gradientUnits="userSpaceOnUse" spreadMethod="pad"><stop offset="0" stop-color="#f25b29"/><stop offset=".015" stop-color="#f25b29"/><stop offset=".124" stop-color="#f9a70d"/><stop offset=".593" stop-color="#fabd47"/><stop offset="1" stop-color="#fff"/></linearGradient><linearGradient id="n" x1="0" x2="1" y1="0" y2="0" gradientTransform="scale(90.89813 -90.89813) rotate(-29 -1.6 -2.106)" gradientUnits="userSpaceOnUse" spreadMethod="pad"><stop offset="0" stop-color="#f46c24"/><stop offset=".051" stop-color="#f57b1f"/><stop offset=".146" stop-color="#f9a70d"/><stop offset="1" stop-color="#fff"/></linearGradient><linearGradient id="o" x1="0" x2="1" y1="0" y2="0" gradientTransform="scale(77.99164 -77.99164) rotate(-29 -2.187 -2.619)" gradientUnits="userSpaceOnUse" spreadMethod="pad"><stop offset="0" stop-color="#f5861a"/><stop offset=".031" stop-color="#f5861a"/><stop offset=".086" stop-color="#f9a70d"/><stop offset=".352" stop-color="#fcd382"/><stop offset="1" stop-color="#fff"/></linearGradient><linearGradient id="p" x1="0" x2="1" y1="0" y2="0" gradientTransform="scale(31.39829 -31.39829) rotate(-75 -.848 -4.113)" gradientUnits="userSpaceOnUse" spreadMethod="pad"><stop offset="0" stop-color="#f79817"/><stop offset=".051" stop-color="#f9ad1b"/><stop offset=".303" stop-color="#fcedce"/><stop offset="1" stop-color="#fff"/></linearGradient><radialGradient id="c" cx="0" cy="0" r="1" fx="0" fy="0" gradientTransform="matrix(89.35891 0 0 -89.35891 113.59 132.693)" gradientUnits="userSpaceOnUse" spreadMethod="pad"><stop offset="0" stop-color="#fff"/><stop offset=".305" stop-color="#f9a70d"/><stop offset=".785" stop-color="#f03d31"/><stop offset="1" stop-color="#f03d31"/></radialGradient><clipPath id="a" clipPathUnits="userSpaceOnUse"><path d="M0 214.799h757.339V0H0Z"/></clipPath></defs><path fill="#151643" fill-rule="evenodd" d="M142.062 21.336v20.5h4.425l-.2-15.504 8.824 15.504h4.996v-20.5h-4.398l.2 14.732-8.395-14.732ZM174.142 25.419l3.113 7.88h-6.111Zm-2.114-4.084-8.678 20.501h4.568l1.827-4.882h8.909l1.884 4.882h4.797l-8.737-20.5ZM193.137 41.836h4.454l8.566-20.5h-4.597l-6.31 15.275-6.167-15.275H184.2zM216.005 25.419l3.113 7.88h-6.11Zm-2.112-4.084-8.68 20.501h4.568l1.828-4.882h8.909l1.883 4.882h4.797l-8.736-20.5Z"/><g clip-path="url(#a)" transform="matrix(.35278 0 0 -.35278 -11.055 68.01)"><path fill="#151643" fill-rule="evenodd" d="M706.22 74.194h15.461v9.633h-14.408c-5.18 0-8.659.727-11.252 3.803-1.94 2.266-2.023 5.745-2.023 10.522v34.154h-12.223v-34.56c0-7.689.813-12.787 5.263-17.48 5.18-5.505 10.763-6.072 19.181-6.072M202.525 121.866h17.886c5.421 0 8.01-2.024 8.01-6.72 0-4.691-2.589-6.716-8.01-6.716h-17.886Zm18.043-37.394h-18.043v13.68h18.043c5.425 0 8.018-2.024 8.018-6.88 0-4.858-2.593-6.8-8.018-6.8m1.706-10.276c13.192 0 19.504 4.856 19.504 15.863 0 6.553-2.916 10.682-8.822 13.19 5.99 3.077 8.66 7.446 8.66 13.923 0 5.42-2.348 9.793-6.557 12.464-3.157 2.023-8.095 2.67-14.892 2.67h-29.864v-58.11zM277.278 74.195h15.462v9.63h-14.41c-5.178 0-8.659.73-11.25 3.806-1.942 2.266-2.025 5.743-2.025 10.521v34.154h-12.218v-34.56c0-7.687.81-12.787 5.26-17.482 5.178-5.504 10.766-6.069 19.181-6.069M328.97 120.731l8.823-22.337h-17.32Zm-5.986 11.576-24.608-58.111h12.949l5.18 13.839h25.253l5.34-13.84h13.6l-24.768 58.112ZM379.49 132.306h-12.52V96.077c0-7.596.667-12.854 3.422-16.11 4.925-5.844 12.186-8.265 22.62-8.265 10.436 0 17.618 2.421 22.541 8.264 2.668 3.172 3.506 8.432 3.506 16.111v36.23h-12.605V96.41c0-10.599-3.006-15.024-13.443-15.024-10.433 0-13.522 4.425-13.522 15.024Z"/></g><path fill="url(#b)" d="M57.219 113.183c-12.745-26.074-25.883-67.66-25.883-67.66 33.079-2.69 65.184-6.216 107.413-21.831 18.099-6.694 17.651-2.936 17.513.821-.113 3.086-.016 6.173 10.744 3.468 3.541-.891 22.083-5.782 28.313-8.137-26.494 20.779-50.262 57.877-68.849 93.325-18.441 35.165-23.262 61.076-25.278 79.616-18.47-29.386-28.421-47.786-43.973-79.602" transform="matrix(.35278 0 0 -.35278 -11.055 68.01)"/><path fill="url(#c)" d="M105.209 145.017c-27.541-7.35-43.833-35.635-36.39-63.175 7.444-27.541 35.802-43.908 63.343-36.557 27.54 7.352 43.833 35.635 36.389 63.175-6.237 23.083-27.166 38.316-49.994 38.315-4.409 0-8.89-.568-13.348-1.758" transform="matrix(.35278 0 0 -.35278 -11.055 68.01)"/><path fill="url(#d)" d="M105.209 145.017c-27.541-7.35-43.833-35.635-36.39-63.175a52.197 52.197 0 0 1 2.614-7.41c10.514-22.955 36.348-35.659 61.551-28.909.223.06.444.12.666.183a51.307 51.307 0 0 1 14.789 7.146 52.53 52.53 0 0 0-14.191-6.051c-27.734-7.284-56.247 8.848-63.683 36.034-7.436 27.183 8.971 55.211 36.706 62.494 1.659.436 3.319.787 4.979 1.057a51.933 51.933 0 0 1-7.041-1.369" transform="matrix(.35278 0 0 -.35278 -11.055 68.01)"/><path fill="url(#e)" d="M114.032 146.575a51.9 51.9 0 0 1-8.489-1.47c-22.272-6.528-34.53-32.102-27.148-59.637 6.833-25.48 27.929-43.052 48.923-41.233 1.615.27 3.231.62 4.844 1.05a51.75 51.75 0 0 1 10.103 3.861c16.732 10.222 24.426 34.329 18.01 58.261-6.417 23.928-24.683 39.227-44.152 39.227-.696 0-1.393-.019-2.091-.059M80.489 86.029c-7.289 27.193 4.613 53.457 25.861 59.15 21.248 5.692 44.539-11.142 51.831-38.333 7.289-27.192-3.43-55.373-24.679-61.067a30.222 30.222 0 0 0-7.836-1.021c-19.096 0-38.771 17.378-45.177 41.271" transform="matrix(.35278 0 0 -.35278 -11.055 68.01)"/><path fill="url(#f)" d="M108.385 145.76a52.618 52.618 0 0 1-3.176-.743 50.878 50.878 0 0 1-.697-.191c-10.586-4.919-12.661-28.106-5.723-53.984 6.624-24.702 19.941-45.002 31.324-46.06.562.126 1.122.262 1.684.407-9.655.239-23.895 20.033-30.915 46.214-7.484 27.918-4.181 51.206 5.413 53.776 9.592 2.57 24.102-15.944 31.589-43.861 6.923-25.823 5.623-49.517-2.202-54.959.394.135.785.275 1.174.419 8.872 6.984 9.648 30.755 3.12 55.1-6.756 25.203-19.76 43.891-31.186 43.89-.135 0-.27-.003-.405-.008" transform="matrix(.35278 0 0 -.35278 -11.055 68.01)"/><path fill="url(#g)" d="m105.462 145.084.012-.036c1.45-4.437 2.648-8.981 3.907-13.473a3330.747 3330.747 0 0 0 18.887-70.503c1.145-4.476 3.099-11.175 4.071-15.739.703.19 1.398.394 2.086.611-.989 4.59-2.917 11.212-4.058 15.665a3319.924 3319.924 0 0 1-18.899 70.55c-1.253 4.476-2.451 9.006-3.89 13.432a53.671 53.671 0 0 1-2.116-.507" transform="matrix(.35278 0 0 -.35278 -11.055 68.01)"/><path fill="url(#h)" d="M123.321 82.161c-26.312-7.052-46.221-9.936-48.91-9.194-.009.004.957-1.787.966-1.788 7.523-.783 27.624 3.292 48.504 8.888 20.959 5.615 40.395 12.124 46.445 16.565a51.434 51.434 0 0 1-.115 2.141c-2.731-2.246-21.207-9.731-46.89-16.612" transform="matrix(.35278 0 0 -.35278 -11.055 68.01)"/><path fill="url(#i)" d="M126.003 72.15c-22.885-6.132-41.975-8.858-45.333-8.54-.04.004 1.618-1.818 1.679-1.822 5.939-.404 25.687 3.303 44.214 8.268 16.085 4.309 35.277 11.034 42.824 15.005.161.815.302 1.638.423 2.463-5.315-2.724-19.422-8.839-43.807-15.374" transform="matrix(.35278 0 0 -.35278 -11.055 68.01)"/><path fill="url(#j)" d="M129.121 62.463a284.11 284.11 0 0 0-23.663-5.402c-9.564-1.744-15.029-2.101-15.029-2.101.138-.512 1.387-1.399 1.697-1.576 1.131-.161 6.479.009 14.14 1.495 10.022 1.945 21.171 4.802 22.951 5.279a312.236 312.236 0 0 1 26.66 8.457c4.583 1.69 7.544 2.939 9.313 3.923.427.88.829 1.772 1.206 2.676-5.267-2.901-20.138-8.044-37.275-12.751" transform="matrix(.35278 0 0 -.35278 -11.055 68.01)"/><path fill="url(#k)" d="M131.269 53.83c-10.631-2.733-25.686-6.409-28.036-5.073.038-.15.105-.312.29-.417l-2.093-.562c.68-2.539 8.834-.753 9.944-.571 5.487.898 13.155 2.454 20.624 4.633 9.067 2.646 19.113 6.346 25.737 9.396a51.367 51.367 0 0 1 2.008 2.464c-8.282-3.294-21.349-8.037-28.474-9.87" transform="matrix(.35278 0 0 -.35278 -11.055 68.01)"/><path fill="url(#l)" d="M120.533 92.559C93.477 85.31 72.987 82.416 70.49 83.263c-.018.006.468-1.784.468-1.784 7.032-1.155 28.11 3.083 50.137 8.985 21.77 5.835 41.893 12.605 47.684 17.122a50.409 50.409 0 0 1-.619 2.246c-1.048-1.815-20.033-9.88-47.627-17.273" transform="matrix(.35278 0 0 -.35278 -11.055 68.01)"/><path fill="url(#m)" d="M117.715 103.146c-22.222-5.953-41.537-9.028-48.852-9.425-.013-.039.046-.925.101-1.643 8.07-.649 28.677 3.445 49.312 8.975 21.3 5.707 41.239 11.978 46.841 16.59-.31.637-.632 1.266-.965 1.886-2.769-2.243-20.845-9.525-46.437-16.383" transform="matrix(.35278 0 0 -.35278 -11.055 68.01)"/><path fill="url(#n)" d="M157.27 129.34c-3.865-3.503-19.013-8.784-42.52-15.196-23.289-6.352-39.221-8.52-45.057-8.64a45.155 45.155 0 0 1-.304-1.678c8.294-.114 26.516 3.024 45.922 8.224 20.327 5.447 39.644 11.713 43.271 15.779a51.092 51.092 0 0 1-1.301 1.521l-.011-.01" transform="matrix(.35278 0 0 -.35278 -11.055 68.01)"/><path fill="url(#o)" d="M111.777 125.243c-1.984-.532-28.714-6.798-37.857-7.145-.004 0-.133-.27-.269-.553-.143-.297-.476-1.226-.471-1.226 1.27-.065 4.175.159 6.198.374 18.466 2.217 29.822 5.614 32.96 6.456 10.531 2.822 19.952 5.804 26.671 8.345.927.35 7.948 2.655 10.329 5.106a49.83 49.83 0 0 1-1.735 1.228c-4.221-3.672-33.659-12.006-35.826-12.585" transform="matrix(.35278 0 0 -.35278 -11.055 68.01)"/><path fill="url(#p)" d="M109.657 135.561c-1.39-.372-21.647-5.359-27.619-5.55 0-.018-.235-.262-.517-.59-.363-.424-.758-1.052-1.108-1.402.852-.051 5.609.554 9.018 1.076 12.659 2.071 27.527 6.248 39.524 10.784.802.303 5.767 1.772 7.776 3.58a52.16 52.16 0 0 1-2.358.824c-4.875-2.831-23.323-8.349-24.716-8.722" transform="matrix(.35278 0 0 -.35278 -11.055 68.01)"/></svg>
