<svg xmlns="http://www.w3.org/2000/svg" xmlns:xlink="http://www.w3.org/1999/xlink" viewBox="0 0 533.18 178.18"><defs><style>.cls-1{fill:url(#radial-gradient);}.cls-2{fill:url(#radial-gradient-2);}.cls-3{fill:#fff;}.cls-4{fill:#1f114c;}.cls-5{fill:#fbba00;}.cls-6{fill:url(#linear-gradient);}.cls-7{fill:url(#radial-gradient-3);}.cls-8{fill:url(#radial-gradient-4);}</style><radialGradient id="radial-gradient" cx="265.17" cy="6.83" r="26.4" gradientTransform="translate(-84.74 27.69) scale(0.82 0.8)" gradientUnits="userSpaceOnUse"><stop offset="0" stop-color="#fff"/><stop offset="0.24" stop-color="#fbf5c6"/><stop offset="0.61" stop-color="#ffd63a"/><stop offset="0.85" stop-color="#fcbf17"/><stop offset="1" stop-color="#f9ae16"/></radialGradient><radialGradient id="radial-gradient-2" cx="317.81" cy="154.53" r="35.09" gradientTransform="matrix(0.8, -0.18, 0.18, 0.78, -149.28, -29.62)" gradientUnits="userSpaceOnUse"><stop offset="0" stop-color="#fff8c7"/><stop offset="0.24" stop-color="#fbf5c6"/><stop offset="0.52" stop-color="#ffd461"/><stop offset="0.66" stop-color="#fcbf17"/><stop offset="0.8" stop-color="#e7af17"/><stop offset="0.9" stop-color="#e7af17"/></radialGradient><linearGradient id="linear-gradient" x1="1683.57" y1="-1467.41" x2="1847" y2="-1484.58" gradientTransform="translate(-1688.74 1570.13)" gradientUnits="userSpaceOnUse"><stop offset="0" stop-color="#1f114c"/><stop offset="0.08" stop-color="#1f114c"/><stop offset="0.86" stop-color="#009fe3"/><stop offset="1" stop-color="#009fe3"/></linearGradient><radialGradient id="radial-gradient-3" cx="225.78" cy="109.26" r="83.53" gradientTransform="translate(-79.52 26.27) scale(0.82 0.8)" gradientUnits="userSpaceOnUse"><stop offset="0" stop-color="#fff"/><stop offset="0.24" stop-color="#fff8bd"/><stop offset="0.61" stop-color="#ffd631"/><stop offset="0.8" stop-color="#fdc300"/><stop offset="1" stop-color="#fbba00"/></radialGradient><radialGradient id="radial-gradient-4" cx="255.26" cy="250.82" r="110.92" gradientTransform="matrix(0.8, -0.18, 0.18, 0.78, -144.05, -31.04)" gradientUnits="userSpaceOnUse"><stop offset="0" stop-color="#fff8bd"/><stop offset="0.24" stop-color="#fff8bd"/><stop offset="0.52" stop-color="#ffd631"/><stop offset="0.66" stop-color="#fdc300"/></radialGradient></defs><g id="Capa_2" data-name="Capa 2"><g id="Primer_plano" data-name="Primer plano"><path class="cls-1" d="M141.4,27.42c2.87,10.06-5.78,17.82-14.44,17.82s-17-7.6-14.8-17.81C114.44,16.85,120,12.5,127,0,127.93,12.94,138.44,16.85,141.4,27.42Z"/><path class="cls-2" d="M140.1,28.46c.64,4.78-1.12,10-7.52,10.3-4.23.14-7.18-3.81-7.23-8.62a22.45,22.45,0,0,1,4.77-13.63C135.66,18.28,139.61,25,140.1,28.46Z"/><path class="cls-3" d="M139.05,27.22c-.45,0-.79.75-.71,1.56s.53,1.45,1,1.42.83-.76.76-1.55S139.53,27.19,139.05,27.22Z"/><path class="cls-3" d="M138.6,26.15c0,.09.17.29.38.41s.44.11.46,0-.16-.33-.39-.42S138.65,26,138.6,26.15Z"/><path class="cls-3" d="M138.55,25.52c-.05.07,0,.15.13.22s.2.06.24,0,0-.15-.09-.22A.34.34,0,0,0,138.55,25.52Z"/><path class="cls-3" d="M138.36,25.13s0,.1,0,.17.15,0,.16,0,0-.09-.05-.14S138.39,25.09,138.36,25.13Z"/><path class="cls-3" d="M132.54,17.55c.25.09.44.26.36.42s-.32.2-.58.11"/><path class="cls-3" d="M133.27,18.33c.06-.11.25-.09.43,0s.2.3.15.38"/><path class="cls-4" d="M187,32.94l12.7,38.23,12.7-38.23H227.7V82.76H217.43L218.26,44,205.49,82.76h-11.1L181.2,43.55l1,39.21H171.56V32.94Z"/><path class="cls-4" d="M264.75,32.94,286,82.76H274.33L269.75,70.9H248.1l-4.44,11.86H232.55l21.1-49.82ZM251.5,62h14.85l-7.57-19.15Z"/><path class="cls-4" d="M316.66,32.94c11.8,0,17.42,4.51,17.42,15,0,7.7-3.61,12.63-10.07,14l12.43,20.82h-11.8l-11-19.57H301.32V82.76H290.84V32.94Zm-15.34,8.88V54.38h12.84c6.25,0,9.3-1.25,9.3-6.31s-3-6.25-9.3-6.25Z"/><path class="cls-4" d="M344.35,82.76V32.94h11V82.76Z"/><path class="cls-4" d="M380.29,32.94,400.7,68.75l-.49-35.81H410.9V82.76H398.75L377.31,45.08l.48,37.68H367V32.94Z"/><path class="cls-4" d="M431.16,53.2h29v8.68H431.09c.07,8.95,3.61,12.21,11.87,12.21h17.21v8.67h-17.7c-6,0-10.69-.48-15.55-4.37-5.13-4.09-7.63-10.62-7.63-19.64,0-17.62,7.43-25.81,23.46-25.81h17.42v8.67H443C435.39,41.61,431.57,45.36,431.16,53.2Z"/><path class="cls-5" d="M186,106c11.71,0,17.18,5.71,17.18,17.91s-5.47,17.95-17.18,17.95-17.19-5.76-17.19-18.29C168.76,111.74,174.38,106,186,106Zm-9.27,17.62c0,8.4,2.78,12.29,9.27,12.29s9.31-3.89,9.31-12-2.93-12-9.31-12S176.68,115.82,176.68,123.65Z"/><path class="cls-5" d="M209.08,141.17V106.7h7.58v34.47Z"/><path class="cls-5" d="M227.08,137.57c-2.64-2.78-3.12-5.81-3.12-10.37V106.7h7.25V127c0,2.83,0,4.9,1.2,6.24,1.53,1.83,3.6,2.26,6.67,2.26h8.55v5.71h-9.17C233.46,141.17,230.15,140.83,227.08,137.57Z"/><path class="cls-5" d="M273,110.64c2.69-2.74,7-3.94,13.44-3.94h11v6H285.79c-6.2,0-9,2.45-9.08,8.4h20.74v6H276.71v14.11h-7.25V125.33C269.46,118.46,269.85,113.81,273,110.64Z"/><path class="cls-5" d="M310.31,127.34c0,6.1,1.78,8.65,7.78,8.65s7.73-2.55,7.73-8.65V106.7h7.25v20.84c0,4.41-.48,7.44-2,9.26-2.83,3.36-7,4.75-13,4.75s-10.18-1.39-13-4.75c-1.58-1.87-2-4.89-2-9.26V106.7h7.2Z"/><path class="cls-5" d="M347.08,120.72h20.07v6H347c.05,6.19,2.5,8.45,8.21,8.45h11.91v6H354.9c-4.17,0-7.39-.34-10.75-3-3.55-2.84-5.28-7.35-5.28-13.59,0-12.19,5.14-17.86,16.23-17.86h12v6H355.24C350,112.7,347.37,115.3,347.08,120.72Z"/><path class="cls-5" d="M376.74,137.57c-2.64-2.78-3.12-5.81-3.12-10.37V106.7h7.25V127c0,2.83.05,4.9,1.2,6.24,1.54,1.83,3.6,2.26,6.67,2.26h8.55v5.71h-9.17C383.13,141.17,379.82,140.83,376.74,137.57Z"/><path class="cls-4" d="M407.85,124.85c0,7.73,2.35,10.32,8.45,10.32h11.9v6H416c-4.18,0-7.39-.34-10.75-3-3.56-2.84-5.28-7.35-5.28-13.59,0-12.19,5.13-17.86,16.22-17.86H428.2v5.91H416.3C410.2,112.61,407.85,116.3,407.85,124.85Z"/><path class="cls-4" d="M452.06,106.7l14.69,34.47h-8.07L455.51,133h-15l-3.08,8.21h-7.68l14.6-34.47Zm-9.17,20.12h10.27l-5.23-13.25Z"/><path class="cls-4" d="M488,106.7c8.16,0,12.05,3.12,12.05,10.37,0,5.33-2.5,8.74-7,9.7l8.59,14.4h-8.16l-7.58-13.54h-8.55v13.54H470.1V106.7Zm-10.61,6.15v8.69h8.88c4.32,0,6.43-.87,6.43-4.37s-2.11-4.32-6.43-4.32Z"/><path class="cls-4" d="M513.11,120.72h20.07v6H513.06c.05,6.19,2.5,8.45,8.21,8.45h11.91v6H520.94c-4.18,0-7.4-.34-10.76-3-3.55-2.84-5.28-7.35-5.28-13.59,0-12.19,5.14-17.86,16.23-17.86h12v6H521.27C516,112.7,513.4,115.3,513.11,120.72Z"/><path class="cls-4" d="M257.86,123a20.47,20.47,0,0,0,2.35-2.59l2.67,2.57c-.28.37-.58.74-.93,1.12s-.74.77-1.19,1.18l-.35.34,4,4.3h-5.86L257,128.28a11.29,11.29,0,0,1-6.22,2.16,6.94,6.94,0,0,1-2.33-.38,5.6,5.6,0,0,1-1.82-1.08,5,5,0,0,1-1.2-1.65,4.89,4.89,0,0,1-.43-2.07,5.43,5.43,0,0,1,.27-1.79,4.4,4.4,0,0,1,.95-1.5,5.59,5.59,0,0,1,1.12-1,12.64,12.64,0,0,1,1.5-.8l.5-.24-.31-.36a5.45,5.45,0,0,1-1.39-3.34,4.54,4.54,0,0,1,.43-2,4.71,4.71,0,0,1,1.19-1.57,5.58,5.58,0,0,1,1.78-1,7,7,0,0,1,4.49,0,5.37,5.37,0,0,1,1.79,1,4.74,4.74,0,0,1,1.18,1.57,4.6,4.6,0,0,1,.42,2,4.83,4.83,0,0,1-.17,1.31,3.13,3.13,0,0,1-.57,1.1,4.89,4.89,0,0,1-1,1,11.19,11.19,0,0,1-1.57.94Zm-6.29-.64c-1.13.7-1.7,1.4-1.7,2.11a1.46,1.46,0,0,0,.17.71,1.7,1.7,0,0,0,.45.55,2.33,2.33,0,0,0,.66.36,2.37,2.37,0,0,0,.81.13,4.65,4.65,0,0,0,2.47-.79Zm2-3.94c1.12-.67,1.68-1.42,1.68-2.26a1.68,1.68,0,0,0-.45-1.16,1.44,1.44,0,0,0-1.14-.49,1.46,1.46,0,0,0-1.08.43,1.5,1.5,0,0,0-.43,1.08A4.26,4.26,0,0,0,253.52,118.44Z"/><path class="cls-6" d="M110,174.24c-43.26-16-76.15-19.61-110-22.37,0,0,13.46-42.6,26.52-69.31C42.45,50,52.64,31.11,71.56,1c2.07,19,7,45.54,25.9,81.56,19,36.31,43.39,74.32,70.53,95.61-6.38-2.41-25.37-7.42-29-8.34C114.54,163.7,143.81,186.73,110,174.24Z"/><path class="cls-7" d="M135.47,95.67C144.42,127.57,117.12,152,89.7,152S35.9,128,42.89,95.67C50.13,62.2,67.58,48.51,89.7,8.88,92.78,50,126.08,62.2,135.47,95.67Z"/><path class="cls-8" d="M131.26,99c2.1,15.12-3.47,31.79-23.8,32.56-13.29.51-22.64-12.06-22.84-27.33-.2-15.78,6-30.84,15.1-43.09C117.24,66.78,129.75,88.11,131.26,99Z"/><path class="cls-3" d="M128,95.05c-1.51.14-2.54,2.34-2.3,4.93s1.65,4.58,3.16,4.45,2.54-2.34,2.3-4.93S129.55,94.92,128,95.05Z"/><path class="cls-3" d="M126.61,91.6c-.07.41.47,1,1.21,1.37s1.38.3,1.44-.11-.48-1-1.21-1.37S126.67,91.19,126.61,91.6Z"/><path class="cls-3" d="M126.42,89.67c-.14.18,0,.48.33.68s.69.2.83,0,0-.48-.33-.67S126.56,89.49,126.42,89.67Z"/><path class="cls-3" d="M125.81,88.48c-.09.09,0,.29.16.43s.38.18.46.08,0-.28-.16-.43S125.89,88.38,125.81,88.48Z"/><path class="cls-3" d="M107.38,64.42c.83.31,1.35.94,1.17,1.4s-1,.59-1.83.28"/><path class="cls-3" d="M109.73,66.87c.23-.28.81-.18,1.3.2s.71.93.49,1.2"/></g></g></svg>